<?xml version="1.0" standalone="no"?>
<!DOCTYPE svg PUBLIC "-//W3C//DTD SVG 20010904//EN"
 "http://www.w3.org/TR/2001/REC-SVG-20010904/DTD/svg10.dtd">

<svg version="1.0" xmlns="http://www.w3.org/2000/svg"
 width="512.000000pt" height="512.000000pt" viewBox="0 0 512.000000 512.000000"
 fill="#000000"
 preserveAspectRatio="xMidYMid meet">
<g transform="translate(0.000000,512.000000) scale(0.100000,-0.100000)"
fill="#000000" stroke="none">
<path fill="#989898" d="M345 5106 c-84 -21 -147 -57 -211 -121 -65 -65 -105 -136 -123 -223
-7 -34 -11 -196 -11 -447 l0 -395 2560 0 2560 0 0 395 c0 256 -4 413 -11 447
-37 172 -176 311 -347 347 -81 17 -4349 14 -4417 -3z m685 -456 c45 -23 80
-80 80 -130 0 -50 -35 -107 -80 -130 -33 -17 -59 -20 -171 -20 -117 0 -135 2
-171 22 -101 57 -102 194 -2 254 36 22 50 24 172 24 113 0 139 -3 172 -20z
m800 0 c45 -23 80 -80 80 -130 0 -50 -35 -107 -80 -130 -33 -17 -59 -20 -171
-20 -117 0 -135 2 -171 22 -101 57 -102 194 -2 254 36 22 50 24 172 24 113 0
139 -3 172 -20z m800 0 c45 -23 80 -80 80 -130 0 -50 -35 -107 -80 -130 -33
-17 -59 -20 -171 -20 -117 0 -135 2 -171 22 -101 57 -102 194 -2 254 36 22 50
24 172 24 113 0 139 -3 172 -20z"/>
<path fill="#ff6600" d="M0 2015 c0 -1158 3 -1619 11 -1657 37 -172 175 -310 347 -347 75 -16
4328 -16 4404 0 170 36 311 178 347 347 8 38 11 521 11 1657 l0 1605 -2560 0
-2560 0 0 -1605z m1040 364 c66 -31 131 -94 162 -157 19 -39 23 -63 23 -142 0
-84 -3 -102 -26 -147 l-27 -51 38 -37 c21 -21 54 -65 72 -99 31 -58 33 -66 33
-166 0 -101 -1 -108 -34 -168 -43 -78 -114 -144 -189 -174 -52 -20 -77 -22
-280 -26 -195 -3 -226 -2 -248 13 -54 35 -55 41 -52 606 l3 521 33 30 34 29
201 -3 c193 -3 204 -4 257 -29z m657 -4 l23 -26 0 -470 0 -469 146 0 146 0 29
-29 c31 -31 39 -83 19 -122 -23 -43 -58 -49 -262 -49 -215 0 -233 4 -260 60
-16 32 -18 79 -18 538 0 540 1 550 51 586 34 25 97 15 126 -19z m1104 21 c206
-44 381 -206 445 -412 24 -76 26 -95 21 -197 -6 -130 -27 -204 -89 -298 -161
-250 -481 -346 -748 -226 -415 186 -478 757 -112 1027 140 104 314 142 483
106z m1401 0 c80 -17 168 -58 214 -98 29 -25 34 -37 34 -73 0 -32 -6 -48 -26
-69 -38 -38 -85 -38 -149 -1 -97 56 -209 68 -318 35 -144 -45 -255 -174 -275
-320 -28 -201 88 -383 280 -441 80 -25 175 -22 241 6 81 34 151 120 181 223
l15 52 -105 0 c-145 0 -184 22 -184 104 0 22 9 45 24 63 l24 28 187 3 c209 4
224 0 251 -63 11 -26 11 -51 3 -121 -41 -360 -316 -571 -649 -500 -278 60
-472 301 -472 586 0 194 86 367 240 480 140 104 314 142 484 106z"/>
<path fill="#ff6600" d="M710 2080 l0 -130 110 0 c121 0 152 9 189 56 29 36 29 112 0 148 -37
47 -68 56 -189 56 l-110 0 0 -130z"/>
<path fill="#ff6600" d="M710 1580 l0 -170 138 0 c112 0 144 4 178 19 59 27 87 72 92 146 5
74 -21 119 -88 153 -39 20 -59 22 -182 22 l-138 0 0 -170z"/>
<path fill="#ff6600" d="M2553 2190 c-142 -47 -252 -176 -271 -320 -28 -201 88 -383 280 -441
185 -56 383 32 470 209 31 62 33 73 33 172 0 95 -3 111 -29 168 -38 82 -132
171 -213 202 -82 32 -190 36 -270 10z"/>
</g>
</svg>
