<svg version="1.1" id="Layer_1" xmlns="http://www.w3.org/2000/svg" xmlns:xlink="http://www.w3.org/1999/xlink" x="0px" y="0px"
	 width="100%" viewBox="0 0 512 512" enable-background="new 0 0 512 512" xml:space="preserve">
<path fill="#0085F7" opacity="1.000000" stroke="none" 
	d="
M118.166916,253.000168 
	C118.111435,259.826599 118.009361,266.653015 118.007797,273.479431 
	C117.994843,330.119202 118.000450,386.758972 118.000450,443.398743 
	C118.000450,445.378357 118.000450,447.357971 118.000450,449.995789 
	C115.991875,449.995789 114.232002,449.995758 112.472137,449.995758 
	C89.483055,449.995758 66.492760,450.124237 43.505730,449.906616 
	C37.658833,449.851257 31.687901,449.266663 26.009182,447.927612 
	C14.331989,445.174194 6.923080,437.353027 2.681581,426.318878 
	C2.525013,425.911530 1.945961,425.666626 1.281893,425.673004 
	C1.000000,338.979095 1.000000,251.958206 1.293205,164.631042 
	C40.071362,193.153381 78.556313,221.981964 117.165710,251.094391 
	C117.582405,251.918869 117.874664,252.459518 118.166916,253.000168 
z"/>
<path fill="#00A94B" opacity="1.000000" stroke="none" 
	d="
M513.000000,425.531311 
	C511.817291,427.667206 510.546387,429.279388 509.466309,431.010651 
	C502.704132,441.850098 493.692871,449.061005 480.272064,449.075317 
	C452.398315,449.105042 424.524506,449.084351 395.957428,449.084351 
	C395.957428,384.326965 395.957428,319.128479 395.999084,253.176636 
	C396.347107,251.894623 396.653473,251.365997 397.268677,250.717377 
	C436.051636,221.731598 474.525818,192.865799 513.000000,164.000000 
	C513.000000,251.020889 513.000000,338.041779 513.000000,425.531311 
z"/>
<path fill="#E51C19" opacity="1.000000" stroke="none" 
	d="
M117.041267,250.810562 
	C78.556313,221.981964 40.071362,193.153381 1.293205,164.162384 
	C1.000000,143.645767 1.000000,123.291542 1.000000,102.468658 
	C2.216226,100.248123 3.740976,98.635033 4.601036,96.722946 
	C13.372313,77.222710 28.389074,66.965714 49.659084,64.896576 
	C67.127846,63.197231 80.685577,70.943611 93.627388,81.078491 
	C101.570099,87.298523 109.729614,93.241707 117.689026,99.954231 
	C117.404221,102.735001 117.064552,104.870644 117.063225,107.006508 
	C117.033447,154.941177 117.040871,202.875870 117.041267,250.810562 
z"/>
<path fill="#FFBC00" opacity="1.000000" stroke="none" 
	d="
M513.000000,163.531342 
	C474.525818,192.865799 436.051636,221.731598 397.225342,250.260864 
	C396.854736,202.011887 396.847290,154.099396 396.780701,106.186996 
	C396.777802,104.093025 396.232117,101.999817 395.939270,99.906250 
	C405.598541,92.607903 415.317871,85.387352 424.897644,77.986107 
	C432.282410,72.280685 440.003632,67.628189 449.423737,65.822159 
	C465.233643,62.791069 479.595154,65.743393 492.560089,75.129539 
	C502.066803,82.012123 508.598541,91.069420 511.325439,102.659576 
	C511.419098,103.057732 512.032410,103.333618 512.701782,103.333244 
	C513.000000,123.020897 513.000000,143.041794 513.000000,163.531342 
z"/>
<path fill="#FF4131" opacity="1.000000" stroke="none" 
	d="
M395.625275,100.049759 
	C396.232117,101.999817 396.777802,104.093025 396.780701,106.186996 
	C396.847290,154.099396 396.854736,202.011887 396.916534,250.380859 
	C396.653473,251.365997 396.347107,251.894623 395.936951,252.711670 
	C385.201569,260.853546 374.543396,268.671356 363.943939,276.567902 
	C341.814697,293.054016 319.698517,309.557800 297.612488,326.101746 
	C285.054993,335.508209 272.628296,345.091370 259.958496,354.342712 
	C258.638641,355.306488 255.431335,355.409363 254.166016,354.472168 
	C221.094528,329.976074 188.159500,305.295746 155.211914,280.632538 
	C143.055420,271.532654 130.926544,262.395874 118.475998,253.138046 
	C117.874664,252.459518 117.582405,251.918869 117.165710,251.094391 
	C117.040871,202.875870 117.033447,154.941177 117.063225,107.006508 
	C117.064552,104.870644 117.404221,102.735001 117.840393,100.264847 
	C130.067581,108.792213 142.069717,117.615044 154.007690,126.523865 
	C178.814102,145.035828 203.597061,163.579254 228.367111,182.139832 
	C237.026779,188.628662 245.669815,195.142197 254.208282,201.788544 
	C256.293610,203.411789 257.436462,203.668579 259.855103,201.838837 
	C295.772339,174.667221 331.827667,147.678085 367.860779,120.659691 
	C376.992279,113.812675 386.160126,107.014107 395.625275,100.049759 
z"/>
</svg>