<?xml version="1.0" standalone="no"?>
<!DOCTYPE svg PUBLIC "-//W3C//DTD SVG 20010904//EN"
 "http://www.w3.org/TR/2001/REC-SVG-20010904/DTD/svg10.dtd">
<svg version="1.0" xmlns="http://www.w3.org/2000/svg"
 width="512.000000pt" height="512.000000pt" viewBox="0 0 512.000000 512.000000"
 preserveAspectRatio="xMidYMid meet">

<g transform="translate(0.000000,512.000000) scale(0.100000,-0.100000)"
fill="#94419f" stroke="none">
<path d="M2330 5109 c-305 -29 -646 -126 -910 -259 -426 -215 -798 -559 -1046
-966 -88 -146 -131 -232 -197 -399 -293 -740 -214 -1591 215 -2303 295 -490
763 -890 1273 -1087 93 -36 146 -54 277 -91 17 -5 18 20 18 419 l0 424 -42 -8
c-177 -34 -396 33 -524 160 -33 33 -83 92 -110 133 -27 40 -69 95 -94 122 -46
50 -126 96 -167 96 -13 0 -23 6 -23 13 -1 6 -7 74 -13 150 l-13 137 46 0 c60
0 147 -23 213 -56 114 -58 197 -140 305 -300 45 -68 84 -104 146 -136 49 -26
165 -31 238 -9 46 13 47 15 58 65 14 69 58 159 114 237 25 35 46 66 46 70 0 3
-42 14 -92 23 -109 21 -307 85 -393 128 -220 111 -381 265 -489 469 -144 272
-164 606 -54 919 40 111 69 168 136 264 l55 80 -17 70 c-39 160 -31 356 21
519 23 75 25 78 51 73 15 -3 54 -8 87 -12 109 -12 228 -62 427 -181 125 -74
111 -72 288 -34 280 60 594 53 906 -22 l62 -15 93 55 c225 133 362 187 521
207 l47 6 25 -78 c51 -161 59 -357 20 -517 l-16 -70 57 -90 c156 -246 208
-409 208 -650 0 -433 -226 -795 -618 -993 -86 -43 -284 -107 -392 -128 -51 -9
-93 -20 -93 -23 0 -4 23 -38 51 -76 29 -39 62 -93 76 -122 50 -108 53 -145 53
-756 0 -536 1 -568 18 -563 131 37 184 55 277 91 582 224 1087 694 1377 1279
338 681 378 1436 112 2108 -67 170 -109 256 -198 402 -213 350 -512 649 -862
862 -146 88 -232 131 -400 197 -359 142 -775 202 -1154 166z"/>
</g>
</svg>
